<svg xmlns="http://www.w3.org/2000/svg" xmlns:xlink="http://www.w3.org/1999/xlink" xmlns:xodm="http://www.corel.com/coreldraw/odm/2003" xml:space="preserve" version="1.1" style="shape-rendering:geometricPrecision; text-rendering:geometricPrecision; image-rendering:optimizeQuality; fill-rule:evenodd; clip-rule:evenodd" viewBox="30809.45 21943.24 7693.1 2274.1">
 <defs>
  <style type="text/css">
   <![CDATA[
    .fil1 {fill:#090D1D}
    .fil0 {fill:#171D33}
    .fil2 {fill:#171D33}
    .fil4 {fill:#E9C930}
    .fil5 {fill:#FFDE24}
    .fil6 {fill:white}
    .fil3 {fill:#D5E5F9;fill-rule:nonzero}
   ]]>
  </style>
 </defs>
 <g id="Camada_x0020_1">
  <metadata id="CorelCorpID_0Corel-Layer"/>
  <g id="_2177197386304">
   <path class="fil0" d="M31946.5 21943.24l5419 0c625.38,0 1137.05,511.67 1137.05,1137.05l0 0c0,625.38 -511.67,1137.05 -1137.05,1137.05l-5419 0c-625.38,0 -1137.05,-511.67 -1137.05,-1137.05l0 0c0,-625.38 511.67,-1137.05 1137.05,-1137.05z"/>
  </g>
  <path class="fil1" d="M31946.5 21993.24l5419 0c597.88,0 1087.05,489.17 1087.05,1087.05l0 0c0,597.88 -489.17,1087.05 -1087.05,1087.05l-5419 0c-597.88,0 -1087.05,-489.17 -1087.05,-1087.05l0 0c0,-597.88 489.17,-1087.05 1087.05,-1087.05z"/>
  <path class="fil2" d="M37343.61 22299.27l-3395.54 0c-429.57,0 -781.01,351.45 -781.01,781.01l0 0.01c0,429.56 351.44,781.01 781.01,781.01l3395.54 0c429.57,0 781.01,-351.45 781.01,-781.01l0 -0.01c0,-429.56 -351.44,-781.01 -781.01,-781.01z"/>
  <path class="fil3" d="M34197.33 23252.4c-33.59,0 -60.78,-5.57 -81.57,-16.71 -20.78,-11.15 -35.83,-26.61 -45.14,-46.4 -9.32,-19.79 -13.97,-42.82 -13.97,-69.09l0 -15.47 56.87 0 0 15.96c0,17.96 2.41,32.85 7.23,44.65 4.83,11.81 13.31,20.62 25.45,26.44 12.14,5.83 29.18,8.74 51.13,8.74 21.95,0 39,-2.83 51.14,-8.49 12.14,-5.65 20.78,-14.21 25.94,-25.69 5.15,-11.47 7.73,-25.86 7.73,-43.15l0 -210.03 56.37 0 0 209.53c0,25.61 -4.65,48.14 -13.96,67.6 -9.32,19.45 -24.37,34.67 -45.15,45.65 -20.79,10.97 -48.14,16.46 -82.07,16.46zm224 -4.99l-59.87 0 149.17 -334.25 75.82 0 149.17 334.25 -60.86 0 -105.27 -236.97 -19.45 -47.39 -3.99 0 -19.46 47.39 -105.26 236.97zm236.96 -86.81l-223 0 0 -48.39 223 0 0 48.39zm293.84 86.81l-76.32 0 -142.68 -334.25 63.85 0 115.74 279.87 3.99 0 114.75 -279.87 63.35 0 -142.68 334.25zm200.56 0l-59.87 0 149.17 -334.25 75.82 0 149.17 334.25 -60.86 0 -105.27 -236.97 -19.45 -47.39 -3.99 0 -19.46 47.39 -105.26 236.97zm236.96 -86.81l-223 0 0 -48.39 223 0 0 48.39zm242.46 91.8c-32.93,0 -60.61,-4.66 -83.06,-13.97 -22.45,-9.31 -39.33,-22.53 -50.64,-39.66 -11.31,-17.13 -16.96,-37.33 -16.96,-60.61l0 -3 53.88 0 0 7.98c0,13.31 2.99,24.37 8.98,33.18 5.98,8.81 15.96,15.46 29.93,19.95 13.97,4.49 33.26,6.74 57.87,6.74 21.28,0 38.25,-1.58 50.89,-4.74 12.63,-3.16 21.7,-8.15 27.18,-14.97 5.49,-6.81 8.24,-15.38 8.24,-25.69 0,-14.63 -4.66,-25.27 -13.97,-31.93 -9.32,-6.65 -24.45,-11.97 -45.4,-15.96l-81.82 -13.47c-18.62,-3.66 -35.25,-9.06 -49.89,-16.21 -14.63,-7.15 -26.02,-16.8 -34.17,-28.94 -8.15,-12.14 -12.22,-27.35 -12.22,-45.65 0,-11.97 2.66,-23.78 7.98,-35.42 5.32,-11.64 13.64,-22.11 24.94,-31.43 11.31,-9.31 26.03,-16.71 44.16,-22.2 18.12,-5.48 40.32,-8.23 66.6,-8.23 32.59,0 59.36,4.99 80.32,14.97 20.95,9.98 36.5,23.53 46.64,40.66 10.14,17.12 15.22,36.66 15.22,58.62l0 2.99 -53.38 0 0 -6.49c0,-13.63 -3,-25.02 -8.98,-34.17 -5.99,-9.15 -15.8,-15.96 -29.44,-20.45 -13.63,-4.49 -32.09,-6.74 -55.37,-6.74 -20.29,0 -36.67,1.66 -49.14,4.99 -12.47,3.33 -21.54,8.23 -27.19,14.72 -5.66,6.48 -8.48,14.88 -8.48,25.19 0,9.31 1.99,16.96 5.98,22.95 4,5.98 10.15,10.72 18.46,14.22 8.32,3.49 18.96,6.73 31.93,9.72l81.32 13.97c22.28,3.99 40.82,9.98 55.62,17.96 14.8,7.99 25.86,18.13 33.18,30.43 7.32,12.31 10.97,26.61 10.97,42.91 0,16.96 -4.82,32.92 -14.46,47.89 -9.65,14.97 -24.78,27.02 -45.4,36.17 -20.62,9.15 -47.39,13.72 -80.32,13.72zm341.23 0c-34.59,0 -64.86,-7.07 -90.8,-21.2 -25.94,-14.14 -46.06,-34.09 -60.36,-59.87 -14.3,-25.77 -21.45,-56.12 -21.45,-91.04 0,-34.93 7.15,-65.27 21.45,-91.05 14.3,-25.78 34.42,-45.73 60.36,-59.87 25.94,-14.13 56.21,-21.2 90.8,-21.2 31.59,0 59.45,5.24 83.56,15.72 24.11,10.47 42.9,25.44 56.37,44.9 13.47,19.45 20.21,42.65 20.21,69.59l0 6.48 -59.37 0 0 -6.48c0,-25.61 -8.23,-45.07 -24.69,-58.37 -16.46,-13.3 -41.66,-19.95 -75.58,-19.95 -26.28,0 -47.98,4.24 -65.11,12.72 -17.12,8.48 -29.93,21.53 -38.41,39.16 -8.48,17.63 -12.72,40.41 -12.72,68.35 0,27.6 4.24,50.3 12.72,68.09 8.48,17.8 21.29,30.93 38.41,39.41 17.13,8.48 38.83,12.73 65.11,12.73 33.92,0 59.12,-6.66 75.58,-19.96 16.46,-13.3 24.69,-32.76 24.69,-58.37l0 -6.48 59.37 0 0 6.48c0,26.61 -6.74,49.72 -20.21,69.35 -13.47,19.62 -32.26,34.67 -56.37,45.14 -24.11,10.48 -51.97,15.72 -83.56,15.72zm253.93 -4.99l-53.88 0 0 -334.25 173.61 0c25.28,0 47.15,3.83 65.61,11.47 18.46,7.65 32.59,18.8 42.4,33.43 9.81,14.63 14.72,32.43 14.72,53.38 0,18.62 -3.91,34.59 -11.72,47.89 -7.82,13.31 -19.13,23.78 -33.93,31.43 -14.8,7.65 -32.68,12.14 -53.63,13.47l0 3.49c12.97,3.33 23.03,8.73 30.18,16.22 7.15,7.48 13.72,16.54 19.71,27.19l55.87 96.28 -61.86 0 -53.38 -92.29c-4.99,-8.98 -10.39,-16.22 -16.21,-21.7 -5.82,-5.49 -13.05,-9.48 -21.7,-11.98 -8.65,-2.49 -20.12,-3.74 -34.42,-3.74l-61.37 0 0 129.71zm0 -285.86l0 114.74 119.24 0c22.28,0 39.07,-4.32 50.38,-12.97 11.31,-8.64 16.96,-23.44 16.96,-44.4 0,-20.28 -5.65,-34.92 -16.96,-43.9 -11.31,-8.98 -28.1,-13.47 -50.38,-13.47l-119.24 0zm335.25 285.86l-53.88 0 0 -334.25 53.88 0 0 334.25zm213.53 -100.77l-143.18 0 0 -48.4 138.19 0c25.27,0 44.32,-5.15 57.12,-15.46 12.8,-10.31 19.21,-27.94 19.21,-52.88 0,-24.61 -6.41,-42.16 -19.21,-52.63 -12.8,-10.48 -31.85,-15.72 -57.12,-15.72l-138.19 0 0 -48.39 143.18 0c24.94,0 46.81,4.57 65.6,13.72 18.79,9.15 33.42,22.37 43.9,39.66 10.48,17.3 15.72,38.41 15.72,63.36 0,24.61 -5.24,45.56 -15.72,62.86 -10.48,17.29 -25.11,30.6 -43.9,39.91 -18.79,9.31 -40.66,13.97 -65.6,13.97zm-109.76 100.77l-53.88 0 0 -334.25 53.88 0 0 334.25zm433.53 0l-53.38 0 0 -334.25 53.38 0 0 334.25zm131.21 -285.86l-316.29 0 0 -48.39 316.29 0 0 48.39z"/>
  <path class="fil2" d="M31982.27 22199.23c486.6,0 881.06,394.46 881.06,881.06 0,486.6 -394.46,881.06 -881.06,881.06 -486.6,0 -881.06,-394.46 -881.06,-881.06 0,-486.6 394.46,-881.06 881.06,-881.06z"/>
  <path class="fil4" d="M32348.33 22664l-732.12 -1.49c2.67,22.9 3.71,46.63 5.8,69.76 2.01,22.35 3.77,43.9 5.48,67.16 1.69,22.87 3.58,46.43 5.67,69.25 2.14,23.2 3.52,46.27 5.65,69.09 4.17,44.69 7.65,91.03 11.18,136.46 3.56,45.8 8.18,92.71 11.37,139.01 1.54,22.52 3.73,45.45 5.58,68.36 1.83,22.62 3.41,45.06 5.58,68.09l4.2 51.19c0.91,12.89 -0.76,10.17 6.49,12.3 19.67,5.77 39.54,10.74 59.08,16.55 19.35,5.76 39.04,11.11 58.64,16.5 19.73,5.42 39.15,11.26 59,16.6 19.83,5.34 39.4,11.29 59,16.6l65.77 18.64 109.55 -31.69c39.17,-10.92 77.69,-23.01 116.91,-33.85l70.96 -20.52c2.05,-0.9 0.82,-0.06 1.32,-1.23l4.58 -52.15c4.17,-46.34 8.01,-92.68 12.05,-139.21 1.99,-22.96 4.21,-45.95 6.02,-69.08 1.79,-22.93 4.53,-46.59 6.05,-69.42 1.54,-23.2 4.21,-46.01 5.94,-69.21 1.73,-23.22 4.24,-46.46 6.03,-69.52 5.37,-69 12.05,-139.22 18.08,-208.36 1.21,-13.88 4.47,-59.94 6.14,-69.83z"/>
  <path class="fil5" d="M31984.99 22735.82l0 689.48c4.58,-0.1 42.06,-12.09 47.86,-13.58l80.13 -23.19c0.06,-0.02 0.19,-0.06 0.24,-0.08l107.26 -31.13c3.34,-0.96 7.94,-1.74 10.89,-3.05 1.78,-0.79 1.4,-0.69 1.6,-3.14l6.7 -78.08c1.14,-15.87 3.52,-32.87 4.23,-48.25 0.61,-13.24 2.6,-27 3.52,-40.66 0.07,-1.07 0.47,-5.77 0.52,-6.46 1.21,-16.7 3.23,-32.79 4.38,-49.46l6.01 -69.84c0.82,-14.7 2.33,-25.37 3.48,-39.88 0.1,-1.29 0.03,-0.95 0.24,-2.68 1.53,-12.74 2.14,-23.89 3.1,-36.67l21.33 -244.34 -258.41 -0.79c-2.63,0.03 -4.92,-0.09 -8.6,-0.06l-34.48 -0.15 0 2.01z"/>
  <path class="fil6" d="M32012.6 23148.46c4.27,0 12.84,-1.65 17.65,-2.39 33.46,-5.13 68.67,-9.56 101.92,-14.76 1.74,-0.28 14.67,-2.8 16.74,-1.75l-7.3 120.36 -32.06 10.97c-10.68,3.37 -21.38,7.43 -32.21,11.02l-48.5 16.66c-5.71,1.9 -10.59,3.54 -16.23,5.63l0 91.54 57.67 -13.5c9.8,-2.26 19.72,-4.54 29.14,-6.72l101.73 -23.58c3.9,-0.89 2.58,-3.97 3.08,-13.7 0.51,-10.04 0.85,-20.61 1.69,-30.93 0.74,-9.08 0.65,-20.16 1.48,-30.61 0.78,-9.8 1.11,-21.76 1.68,-32.07 1.73,-31.26 2.58,-63.49 4.66,-93.94 0.64,-9.25 0.79,-19.92 1.53,-30.34 0.72,-10.09 0.76,-20.46 1.58,-31.27 0.4,-5.25 1.97,-28.06 1.22,-30.13l-121.38 0 0 -144.74 120.69 0c1.63,0 2.16,-6.88 2.66,-9.84l12.95 -78.22 -220.39 -0.15 0 332.46z"/>
  <path class="fil6" d="M31872.83 23276.3l-30.2 -5.67c-4.51,-0.85 -29.74,-5.3 -31.48,-6.27l0 -60.94c-0.54,-1.73 -15.12,-3.24 -16.75,-3.47l-57.13 -9.21 0 128.09c0,13.51 -2.83,10.16 12.05,13.91 13.55,3.41 27.06,7.05 40.69,10.54 27.15,6.94 53.7,14.19 81.28,21.19 6.04,1.54 77.73,20.62 81.39,21.02l0.12 -569.59 -73.62 0.07c-0.86,0.01 -2.27,0.01 -3.03,-0.03 -1.52,-0.08 -2.44,-0.72 -3.03,0.97l-0.05 423.32c0,7.44 0.98,30.41 -0.24,36.07z"/>
 </g>
</svg>