<svg xmlns="http://www.w3.org/2000/svg" xmlns:xlink="http://www.w3.org/1999/xlink" xmlns:xodm="http://www.corel.com/coreldraw/odm/2003" xml:space="preserve" version="1.1" style="shape-rendering:geometricPrecision; text-rendering:geometricPrecision; image-rendering:optimizeQuality; fill-rule:evenodd; clip-rule:evenodd" viewBox="0 0 3944.36 3944.36">
 <defs>
  <style type="text/css">
   <![CDATA[
    .fil0 {fill:black}
    .fil1 {fill:url(#id2)}
   ]]>
  </style>
    <mask id="id0">
  <linearGradient id="id1" gradientUnits="userSpaceOnUse" x1="1985.48" y1="1935.21" x2="1985.52" y2="3944.35">
   <stop offset="0" style="stop-opacity:1; stop-color:white"/>
   <stop offset="1" style="stop-opacity:0; stop-color:white"/>
  </linearGradient>
     <rect style="fill:url(#id1)" x="-3.8" y="-3.8" width="1979.83" height="3930.56"/>
    </mask>
  <linearGradient id="id2" gradientUnits="userSpaceOnUse" x1="0.01" y1="1972.18" x2="3922.04" y2="1972.18">
   <stop offset="0" style="stop-opacity:1; stop-color:#9D00FF"/>
   <stop offset="1" style="stop-opacity:1; stop-color:#EBA3FF"/>
  </linearGradient>
 </defs>
 <g id="Camada_x0020_1">
  <metadata id="CorelCorpID_0Corel-Layer"/>
  <g id="_2809304086656">
   <path class="fil0" d="M1972.18 0c1089.21,0 1972.18,882.97 1972.18,1972.18 0,1089.21 -882.97,1972.18 -1972.18,1972.18 -1089.21,0 -1972.18,-882.97 -1972.18,-1972.18 0,-1089.21 882.97,-1972.18 1972.18,-1972.18zm0 0z"/>
   <path class="fil1" style="mask:url(#id0)" d="M1670.28 3922.97c-951.33,-140.58 -1670.28,-960.37 -1670.28,-1950.79 0,-1087.96 869.83,-1970.1 1957.29,-1972.13l0 -0.05 3.74 0 3.74 0c4.12,0 7.47,3.36 7.47,7.47l0 6.51c0,4.12 -3.36,7.47 -7.47,7.47l-3.74 0 0 3901.52 -290.74 0z"/>
   <path class="fil0" d="M1972.18 21.39c1077.39,0 1950.79,873.4 1950.79,1950.78 0,1077.39 -873.4,1950.79 -1950.79,1950.79 -1077.38,0 -1950.78,-873.4 -1950.78,-1950.79 0,-1077.38 873.4,-1950.78 1950.78,-1950.78zm0 0z"/>
  </g>
 </g>
</svg>