<svg xmlns="http://www.w3.org/2000/svg" xmlns:xlink="http://www.w3.org/1999/xlink" xmlns:xodm="http://www.corel.com/coreldraw/odm/2003" xml:space="preserve" version="1.1" style="shape-rendering:geometricPrecision; text-rendering:geometricPrecision; image-rendering:optimizeQuality; fill-rule:evenodd; clip-rule:evenodd" viewBox="8513.59 12871.25 3958.56 3958.56">
 <defs>
  <style type="text/css">
   <![CDATA[
    .fil2 {fill:#070707}
    .fil0 {fill:#1A1A1A}
    .fil1 {fill:url(#id2)}
   ]]>
  </style>
   <mask id="id0">
  <linearGradient id="id1" gradientUnits="userSpaceOnUse" x1="10506.22" y1="14813.43" x2="10506.26" y2="16829.81">
   <stop offset="0" style="stop-opacity:1; stop-color:white"/>
   <stop offset="1" style="stop-opacity:0; stop-color:white"/>
  </linearGradient>
    <rect style="fill:url(#id1)" x="8509.78" y="12867.44" width="1986.96" height="3944.72"/>
   </mask>
  <linearGradient id="id2" gradientUnits="userSpaceOnUse" x1="8513.6" y1="14850.53" x2="12449.76" y2="14850.53">
   <stop offset="0" style="stop-opacity:1; stop-color:#9D00FF"/>
   <stop offset="1" style="stop-opacity:1; stop-color:#EBA3FF"/>
  </linearGradient>
 </defs>
 <g id="Camada_x0020_1">
  <metadata id="CorelCorpID_0Corel-Layer"/>
  <path class="fil0" d="M10492.87 12871.25c1093.13,0 1979.28,886.15 1979.28,1979.28 0,1093.13 -886.15,1979.28 -1979.28,1979.28 -1093.13,0 -1979.28,-886.15 -1979.28,-1979.28 0,-1093.13 886.15,-1979.28 1979.28,-1979.28zm0 0z"/>
  <path class="fil1" style="mask:url(#id0)" d="M10189.89 16808.35c-954.76,-141.09 -1676.3,-963.83 -1676.3,-1957.82 0,-1091.88 872.96,-1977.2 1964.34,-1979.23l0 -0.05 3.75 0 3.75 0c4.13,0 7.5,3.37 7.5,7.5l0 6.53c0,4.13 -3.37,7.5 -7.5,7.5l-3.75 0 0 3915.57 -291.79 0z"/>
  <path class="fil2" d="M10492.87 12892.72c1081.27,0 1957.82,876.55 1957.82,1957.81 0,1081.27 -876.55,1957.82 -1957.82,1957.82 -1081.26,0 -1957.81,-876.55 -1957.81,-1957.82 0,-1081.26 876.55,-1957.81 1957.81,-1957.81zm0 0z"/>
 </g>
</svg>