<svg xmlns="http://www.w3.org/2000/svg" xmlns:xlink="http://www.w3.org/1999/xlink" xmlns:xodm="http://www.corel.com/coreldraw/odm/2003" xml:space="preserve" version="1.1" style="shape-rendering:geometricPrecision; text-rendering:geometricPrecision; image-rendering:optimizeQuality; fill-rule:evenodd; clip-rule:evenodd" viewBox="22624.12 13202.48 28447.15 3295.04">
 <defs>
  <style type="text/css">
   <![CDATA[
    .fil1 {fill:#339CFD;fill-rule:nonzero}
    .fil0 {fill:url(#id0)}
   ]]>
  </style>
  <linearGradient id="id0" gradientUnits="userSpaceOnUse" x1="40116.22" y1="16497.24" x2="40116.22" y2="13291.06">
   <stop offset="0" style="stop-opacity:0; stop-color:#A8D6FF"/>
   <stop offset="0.65098" style="stop-opacity:0.501961; stop-color:#B3DBFF"/>
   <stop offset="1" style="stop-opacity:1; stop-color:#BFE0FF"/>
  </linearGradient>
 </defs>
 <g id="Camada_x0020_1">
  <metadata id="CorelCorpID_0Corel-Layer"/>
  <g id="_1803145806368">
   <path class="fil0" d="M22624.12 16497.51l0 -1153.65 0 -666.15 0 -623.23 0 -807.06c121.03,0 288.97,112.89 375.9,199.13 130.56,129.51 249.94,358.41 443.11,427.61 237.71,85.16 415.26,-123.63 563.1,-271.47 237.21,-237.22 427.43,-401.14 775.12,-171.33 172.51,114.01 284.42,299.19 410.48,460.26l65.68 82.18c24.32,31.12 52.91,52.39 69.22,80.68 23.74,12.09 29.5,25.89 51.68,44.85 17.5,14.93 37.83,29.1 56.64,41.94 45.9,31.32 72.59,45.65 127.04,70.12 45.63,20.49 97.48,34.16 153.85,43.3 253.52,41.14 636.09,-91.08 855.91,-131.82 123.25,-22.84 234.09,-34.35 365.72,-21.91 333.28,31.48 417.82,201.11 558.2,444 24.44,42.27 51.36,87.9 73.57,132.75l21.29 26.97c135.3,187.56 291.26,213.3 498.92,97.98 61.67,-34.23 125.16,-85.52 178.42,-117.3 99.39,-59.32 216.03,-141.21 381.28,-110.96 60.42,11.05 101.22,24.89 149.69,47.45 123.96,57.74 236.21,165.4 317.14,274.33 97.14,130.77 189.29,271.29 299.59,390.44l51.26 57.25c18.5,9.89 52.51,42.64 77.32,60.6 23.32,16.88 50.59,32.98 75.53,46.55 24.94,-13.57 52.21,-29.67 75.53,-46.55 24.81,-17.96 58.82,-50.71 77.32,-60.6l51.28 -57.25c110.28,-119.15 202.43,-259.66 299.59,-390.44 80.91,-108.93 193.15,-216.6 317.12,-274.33 48.46,-22.56 89.29,-36.39 149.7,-47.45 165.24,-30.25 281.87,51.64 381.28,110.96 53.26,31.78 116.76,83.08 178.4,117.3 207.66,115.32 363.63,89.59 498.94,-97.98l21.28 -26.97c22.21,-44.85 49.13,-90.48 73.57,-132.75 140.4,-242.88 224.92,-412.51 558.2,-444 131.62,-12.44 242.47,-0.93 365.72,21.91 219.84,40.74 602.38,172.96 855.9,131.82 56.39,-9.14 108.23,-22.81 153.85,-43.3 54.47,-24.47 81.14,-38.81 127.04,-70.12 18.81,-12.84 39.14,-27 56.64,-41.94 22.19,-18.96 27.94,-32.76 51.68,-44.85 16.33,-28.29 44.9,-49.56 69.22,-80.68l65.68 -82.18c126.06,-161.07 237.99,-346.25 410.5,-460.26 347.69,-229.81 537.89,-65.89 775.1,171.33 147.85,147.84 325.41,356.63 563.1,271.47 193.19,-69.21 312.56,-298.11 443.13,-427.61 86.54,-85.86 253.39,-198.13 374.29,-199.11l0 -0.02 0.8 0 0.8 0 0 0.02c120.92,0.98 287.75,113.26 374.31,199.11 130.56,129.51 249.94,358.41 443.13,427.61 237.69,85.16 415.24,-123.63 563.08,-271.47 237.22,-237.22 427.43,-401.14 775.12,-171.33 172.51,114.01 284.42,299.19 410.48,460.26l65.69 82.18c24.32,31.12 52.89,52.39 69.21,80.68 23.74,12.09 29.5,25.89 51.69,44.85 17.48,14.93 37.81,29.1 56.62,41.94 45.9,31.32 72.59,45.65 127.04,70.12 45.63,20.49 97.48,34.16 153.85,43.3 253.52,41.14 636.09,-91.08 855.91,-131.82 123.25,-22.84 234.09,-34.35 365.73,-21.91 333.27,31.48 417.81,201.11 558.2,444 24.44,42.27 51.34,87.9 73.55,132.75l21.29 26.97c135.3,187.56 291.28,213.3 498.92,97.98 61.67,-34.23 125.16,-85.52 178.42,-117.3 99.39,-59.32 216.05,-141.21 381.28,-110.96 60.42,11.05 101.22,24.89 149.69,47.45 123.96,57.74 236.21,165.4 317.14,274.33 97.14,130.77 189.29,271.29 299.59,390.44l51.26 57.25c18.51,9.89 52.51,42.64 77.32,60.6 26.95,19.51 59.19,37.97 86.97,52.68l0 -28.44c218.11,120.18 507.49,28.3 660.05,-142.09 110.3,-119.15 202.45,-259.67 299.59,-390.44 80.93,-108.93 193.18,-216.59 317.14,-274.33 48.47,-22.56 89.27,-36.4 149.69,-47.45 165.23,-30.25 281.89,51.64 381.28,110.96 53.26,31.78 116.75,83.07 178.42,117.3 207.64,115.32 363.62,89.58 498.92,-97.98l21.29 -26.97c22.21,-44.85 49.11,-90.48 73.55,-132.75 140.39,-242.89 224.93,-412.52 558.2,-444 131.64,-12.44 242.48,-0.93 365.73,21.91 219.82,40.74 602.39,172.96 855.91,131.82 56.37,-9.14 108.22,-22.81 153.85,-43.3 54.45,-24.47 81.14,-38.8 127.04,-70.12 18.81,-12.84 39.14,-27.01 56.62,-41.94 22.19,-18.96 27.95,-32.76 51.69,-44.85 16.32,-28.29 44.89,-49.56 69.21,-80.68l65.69 -82.18c126.06,-161.07 237.97,-346.25 410.48,-460.26 347.69,-229.81 537.9,-65.89 775.12,171.33 147.84,147.84 325.39,356.63 563.08,271.47 193.19,-69.2 312.57,-298.1 443.13,-427.61 86.56,-85.85 253.39,-198.13 374.31,-199.11l0 -0.02 0.34 0 0 3250.1 -0.34 0 -7449.99 0 -7005.49 0 -1.6 0 -6982.61 0 -22.87 0 -6984.22 0 -0.02 -0.01z"/>
   <path class="fil1" d="M44519.08 15055.36c109.2,-154.16 225.39,-309.11 399.81,-393.45 83.01,-40.16 178.64,-60.07 269.89,-40.46 72.32,15.53 137.32,51.74 199.13,91.12 122.43,77.93 241.75,181.47 390.65,201.11 135.6,17.88 256.12,-46.75 339.13,-150.9 85.87,-107.8 138.2,-236.72 211.32,-352.65 83.51,-132.5 199.13,-219.91 353.7,-252.91 356.24,-76.1 703.43,106.37 1052.28,143.89 183.28,19.71 372.01,-3.7 528.8,-106.53 140.68,-92.2 243.23,-228.08 341.46,-361.95 105.02,-143.06 210.85,-288.4 364.25,-383.58 137.53,-85.37 297.21,-109.3 441.98,-27.84 223.64,125.86 344.44,388.59 586.29,487.48 123.56,50.51 262.26,32.36 372.22,-42.39 125.38,-85.22 209.04,-215.53 305.86,-329.16 136.69,-160.35 266.05,-240.53 395.41,-240.53l0 -91.17c-51.61,0 -103.21,18.68 -184.6,56.06 -142.74,65.53 -242.82,177.64 -339.01,298.07 -87.72,109.88 -183.62,244.83 -326.89,283.01 -259.83,69.21 -445.61,-226.43 -608.2,-376.14 -98.99,-91.18 -212.65,-166.93 -349.5,-181.23 -174.97,-18.31 -339.36,74.95 -465.77,187.39 -251.81,224.02 -381.53,612.64 -726.79,719.54 -188.39,58.29 -390.09,23.07 -577.43,-21.33 -173.36,-41.1 -343.24,-93.31 -521.41,-109.98 -160.26,-14.98 -329.07,-3.11 -474.51,71.17 -134.62,68.79 -219.46,189.44 -290.9,318.38 -61.95,111.81 -117.09,245.55 -221.27,325.74 -119.57,92.03 -259.28,51.03 -376.89,-20.68 -127.73,-77.86 -246.55,-184.08 -396.56,-216.53 -176.89,-38.26 -349.98,36.94 -485.92,146.54 -313.85,252.95 -419.69,759.09 -858.67,774.36 -486.7,16.96 -567.26,-501.2 -906.19,-774.36 -135.94,-109.6 -309.03,-184.8 -485.92,-146.54 -150.01,32.45 -268.83,138.67 -396.56,216.53 -117.61,71.71 -257.32,112.71 -376.89,20.68 -104.18,-80.19 -159.32,-213.93 -221.27,-325.74 -71.44,-128.94 -156.28,-249.59 -290.9,-318.38 -145.44,-74.28 -314.25,-86.15 -474.51,-71.17 -178.17,16.67 -348.05,68.88 -521.41,109.98 -187.34,44.4 -389.04,79.62 -577.43,21.33 -345.26,-106.9 -474.98,-495.52 -726.79,-719.54 -126.41,-112.44 -290.8,-205.7 -465.77,-187.39 -136.85,14.3 -250.51,90.05 -349.5,181.23 -162.59,149.71 -348.37,445.35 -608.2,376.14 -143.27,-38.18 -239.17,-173.13 -326.89,-283.01 -96.19,-120.43 -196.27,-232.54 -339.01,-298.07 -162.77,-74.75 -206.41,-74.75 -369.18,0 -142.74,65.53 -242.82,177.64 -339.01,298.07 -87.72,109.88 -183.61,244.84 -326.89,283.01 -259.83,69.2 -445.61,-226.44 -608.2,-376.14 -98.99,-91.18 -212.65,-166.93 -349.5,-181.23 -174.97,-18.32 -339.36,74.95 -465.77,187.39 -251.81,224.02 -381.54,612.64 -726.79,719.54 -188.39,58.28 -390.09,23.07 -577.42,-21.33 -173.36,-41.11 -343.24,-93.31 -521.41,-109.98 -160.25,-14.99 -329.07,-3.12 -474.51,71.17 -134.62,68.79 -219.46,189.44 -290.9,318.38 -61.94,111.81 -117.08,245.54 -221.27,325.74 -119.57,92.03 -259.29,51.02 -376.89,-20.68 -127.72,-77.87 -246.54,-184.08 -396.56,-216.53 -176.89,-38.26 -349.97,36.94 -485.92,146.54 -248.11,199.96 -415.83,702.81 -648.74,702.81 -217.51,0 -400.65,-502.85 -648.74,-702.81 -135.95,-109.6 -309.04,-184.8 -485.93,-146.54 -150.01,32.45 -268.82,138.67 -396.56,216.53 -117.61,71.71 -257.32,112.71 -376.89,20.68 -104.17,-80.19 -159.3,-213.93 -221.27,-325.74 -71.42,-128.94 -156.28,-249.59 -290.9,-318.38 -145.44,-74.28 -314.26,-86.15 -474.5,-71.17 -178.19,16.67 -348.07,68.88 -521.43,109.98 -187.32,44.4 -389.04,79.62 -577.43,21.33 -345.24,-106.9 -474.98,-495.52 -726.77,-719.54 -126.41,-112.44 -290.8,-205.7 -465.77,-187.39 -136.85,14.3 -250.53,90.05 -349.52,181.23 -162.57,149.71 -348.35,445.35 -608.18,376.14 -143.28,-38.18 -239.19,-173.13 -326.91,-283.01 -96.19,-120.43 -196.26,-232.54 -338.99,-298.07 -59.1,-27.14 -121.2,-46.8 -184.6,-59.02 -0.13,6.18 -0.23,12.36 -0.23,18.55l0 68.09c6.54,1.44 13.07,2.95 19.58,4.55 153.74,37.9 274.43,124.25 376.05,243.47 96.84,113.63 180.48,243.94 305.86,329.16 109.97,74.75 248.67,92.9 372.22,42.39 241.85,-98.89 362.65,-361.62 586.29,-487.48 144.79,-81.46 304.46,-57.53 441.98,27.84 153.41,95.18 259.25,240.52 364.25,383.58 98.24,133.87 200.78,269.75 341.46,361.95 156.8,102.83 345.52,126.24 528.82,106.53 348.83,-37.52 696.02,-219.99 1052.26,-143.89 154.56,33 270.19,120.41 353.71,252.91 73.11,115.93 125.45,244.85 211.32,352.65 82.99,104.15 203.51,168.78 339.13,150.9 148.89,-19.64 268.21,-123.18 390.64,-201.11 61.82,-39.38 126.81,-75.59 199.15,-91.12 91.25,-19.61 186.88,0.3 269.87,40.46 174.42,84.34 290.63,239.29 399.81,393.45 412.76,582.83 471.65,582.83 884.41,0 109.2,-154.16 225.38,-309.11 399.81,-393.45 83.01,-40.16 178.64,-60.07 269.89,-40.46 72.32,15.54 137.31,51.75 199.13,91.12 122.43,77.93 241.75,181.46 390.65,201.11 135.6,17.88 256.12,-46.75 339.13,-150.9 85.87,-107.8 138.2,-236.73 211.32,-352.65 83.51,-132.51 199.14,-219.91 353.7,-252.91 356.24,-76.1 703.43,106.36 1052.27,143.89 183.28,19.71 372.01,-3.69 528.82,-106.53 140.66,-92.2 243.21,-228.08 341.44,-361.95 105.02,-143.06 210.86,-288.4 364.27,-383.58 137.51,-85.38 297.19,-109.3 441.96,-27.84 223.65,125.86 344.44,388.59 586.29,487.48 123.56,50.51 262.26,32.36 372.22,-42.39 125.37,-85.23 209.03,-215.53 305.86,-329.16 273.37,-320.7 517.45,-320.7 790.82,0 96.82,113.63 180.48,243.94 305.86,329.16 109.96,74.75 248.66,92.9 372.22,42.39 241.85,-98.89 362.65,-361.62 586.29,-487.48 144.77,-81.46 304.45,-57.53 441.98,27.84 153.4,95.18 259.23,240.52 364.25,383.58 98.23,133.87 200.78,269.75 341.46,361.95 156.79,102.83 345.52,126.24 528.8,106.53 348.85,-37.52 696.04,-219.99 1052.28,-143.89 154.57,33 270.19,120.41 353.7,252.91 73.12,115.93 125.45,244.85 211.32,352.65 83.01,104.15 203.53,168.78 339.13,150.9 148.9,-19.64 268.22,-123.18 390.65,-201.11 61.81,-39.38 126.81,-75.59 199.13,-91.12 91.25,-19.61 186.88,0.3 269.89,40.46 174.42,84.34 290.61,239.29 399.81,393.45 197.16,278.37 337.28,501.5 701.41,493.11 311,-7.17 487.76,-263.46 650.39,-493.11z"/>
  </g>
 </g>
</svg>