<svg xmlns="http://www.w3.org/2000/svg" xmlns:xlink="http://www.w3.org/1999/xlink" xmlns:xodm="http://www.corel.com/coreldraw/odm/2003" xml:space="preserve" version="1.1" style="shape-rendering:geometricPrecision; text-rendering:geometricPrecision; image-rendering:optimizeQuality; fill-rule:evenodd; clip-rule:evenodd" viewBox="8738.41 8586.6 10567.52 4211.05">
 <defs>
  <style type="text/css">
   <![CDATA[
    .str0 {stroke:#F7F2FF;stroke-width:52.92;stroke-linecap:round;stroke-linejoin:round;stroke-miterlimit:22.9256}
    .fil0 {fill:none}
   ]]>
  </style>
 </defs>
 <g id="Camada_x0020_1">
  <metadata id="CorelCorpID_0Corel-Layer"/>
  <g id="_2248087015872">
   <g>
    <path class="fil0 str0" d="M10458.33 8620.31c592.21,-7.36 1184.42,-14.72 1521.52,8.24 337.1,22.97 419.09,76.27 548.28,201.95 129.19,125.68 305.59,323.76 517.99,547 212.4,223.25 460.82,471.66 709.23,720.08"/>
    <path class="fil0 str0" d="M10458.21 12763.94c592.25,7.36 1184.5,14.72 1521.62,-8.24 337.12,-22.97 419.11,-76.27 548.3,-201.95 129.19,-125.68 305.59,-323.76 517.99,-547 212.4,-223.25 460.82,-471.66 709.23,-720.08"/>
    <path class="fil0 str0" d="M8764.87 10657.61c1647.33,0 3294.65,0 4941.98,0"/>
   </g>
   <g>
    <path class="fil0 str0" d="M17586.01 8620.31c-592.21,-7.36 -1184.42,-14.72 -1521.52,8.24 -337.1,22.97 -419.09,76.27 -548.28,201.95 -129.19,125.68 -305.59,323.76 -517.99,547 -212.4,223.25 -460.82,471.66 -709.23,720.08"/>
    <path class="fil0 str0" d="M17586.13 12763.94c-592.25,7.36 -1184.5,14.72 -1521.62,-8.24 -337.12,-22.97 -419.11,-76.27 -548.3,-201.95 -129.19,-125.68 -305.59,-323.76 -517.99,-547 -212.4,-223.25 -460.82,-471.66 -709.23,-720.08"/>
    <path class="fil0 str0" d="M19279.47 10657.61c-1647.33,0 -3294.65,0 -4941.98,0"/>
   </g>
  </g>
 </g>
</svg>