<svg xmlns="http://www.w3.org/2000/svg" xmlns:xlink="http://www.w3.org/1999/xlink" xmlns:xodm="http://www.corel.com/coreldraw/odm/2003" xml:space="preserve" version="1.1" style="shape-rendering:geometricPrecision; text-rendering:geometricPrecision; image-rendering:optimizeQuality; fill-rule:evenodd; clip-rule:evenodd" viewBox="6899.34 4521.3 2201.32 1304">
 <defs>
  <style type="text/css">
   <![CDATA[
    .fil0 {fill:#080806}
   ]]>
  </style>
 </defs>
 <g id="Camada_x0020_1">
  <metadata id="CorelCorpID_0Corel-Layer"/>
  <path class="fil0" d="M7574.58 5514.58l303.04 0c89.47,-13.09 115.75,-0.91 115.75,-179.53l0 -272.53c0,-55.17 9.72,-169.8 -34.49,-205.49 -37.64,-30.41 -144.66,-38.22 -196.28,-45.37l-106.91 -12.26c-36.26,-3.12 -72.8,-9.12 -109.25,-11.57 -55.12,-3.69 -110.32,-13.22 -165.46,-16.61 -44.56,-2.74 -90.38,-9.63 -135.58,-13.38 -50.45,-4.19 -191.48,-19.36 -241.39,-30.04 -15.86,-3.4 -33.09,-7.56 -46.43,-14.82 -42.02,-22.85 -58.24,-67.99 -58.24,-120.51 0,-11.63 1.52,-18.97 1.65,-28.14 0.19,-13.54 -1.42,-17.92 11.59,-14.89 4.48,19.2 -11.16,77.06 18.84,121.83 12.28,18.31 24.53,29.71 47.15,37.27 44.17,14.77 99.9,17.16 146.79,23.69 26.41,3.67 51.11,4.85 77.56,8.5 26.14,3.6 50.49,4.82 76.82,7.6 154.13,16.3 310.38,29.06 463.24,48.2 49.66,6.22 100.48,12.51 148.47,22 39.82,7.86 75.49,18.69 95.28,53.68 2.47,4.37 3.52,9.61 6.64,13.22 0,-29.27 0.1,-58.53 0.07,-87.78 -0.02,-9.97 -1.7,-12.03 -1.76,-21.42 -0.46,-73.15 -75.68,-88.89 -132.56,-105.78 -72.76,-21.59 -138.67,-24.47 -188.08,-73.42 -16.7,-16.56 -23.58,-38.85 -23.58,-69.11 0,-3.87 2.74,-6.62 6.62,-6.62 8.46,0 6.16,22.62 7.02,29.38 11.46,90.22 202.35,93.73 287.62,137.76 17,8.78 47.92,34.11 49.62,54.64l3.32 0c1.17,-14.1 19.16,-33.44 29.5,-41.65 28.4,-22.55 65.22,-31.72 100.91,-41.45 65.68,-17.89 199.72,-35.81 207,-110.77 0.61,-6.18 0.78,-12.77 1.3,-16.92 0.73,-5.92 -0.87,-10.99 5.55,-10.99 7.54,0 6.62,7.95 6.62,13.24 0,51.17 -33.86,80.35 -77.53,97.91 -40.47,16.28 -118.3,33.69 -170.38,48.09 -10.01,2.76 -22.44,7.06 -31.79,11.25 -51.87,23.28 -66.49,49.65 -66.26,107.53 0.12,28.7 0.05,57.4 0.05,86.11 11.7,-16.85 8.19,-27.09 39.36,-46.69 44.55,-28.02 190.94,-38.34 251.21,-46.72l114.99 -12.47c25.85,-1.73 53.03,-5.41 78.01,-8.05 26.37,-2.78 50.71,-4.03 77.04,-7.38 23.86,-3.02 53.01,-6.15 78.2,-7.85 24.94,-1.68 51.68,-6.01 76.34,-8.08 58.79,-4.92 255.65,-23.93 300.88,-40.08 85.16,-30.43 59.55,-136.33 64.76,-158.67 4.28,0 7.83,-3.64 10.75,2.36l2.49 42.32c0,51.9 -17.84,98.86 -60.4,120 -13.56,6.73 -29.79,10.68 -45.63,13.96 -33.67,6.96 -71.28,12.09 -105.78,15.05 -44.76,3.84 -90.5,11.75 -135.82,14.79l-81.19 8.2c-18.8,1.56 -35.92,3.91 -54.42,5.16 -36.47,2.46 -71.4,7.39 -107.92,11.25l-162.08 16.68c-36.44,3.48 -72.39,7.46 -108.58,12.23 -48.94,6.47 -157.76,15.37 -194.9,43.44 -46.93,35.48 -37.31,148.41 -37.31,202.68 0,23.97 0.8,191.78 0.8,276.97 0,179.1 22.79,167.6 117.04,180.05l300.96 0c112.78,0 205.05,69.9 205.05,155.36l0 0c0,85.44 -92.27,155.36 -205.05,155.36l-850.85 0c-112.78,0 -205.05,-69.92 -205.05,-155.36l0 0c0,-85.46 92.27,-155.36 205.05,-155.36z"/>
 </g>
</svg>