<svg xmlns="http://www.w3.org/2000/svg" xmlns:xlink="http://www.w3.org/1999/xlink" xmlns:xodm="http://www.corel.com/coreldraw/odm/2003" xml:space="preserve" version="1.1" style="shape-rendering:geometricPrecision; text-rendering:geometricPrecision; image-rendering:optimizeQuality; fill-rule:evenodd; clip-rule:evenodd" viewBox="5142.01 5478.95 10914.44 2484.7">
 <defs>
  <style type="text/css">
   <![CDATA[
    .str0 {stroke:#394069;stroke-width:35.28;stroke-linecap:round;stroke-linejoin:round;stroke-miterlimit:22.9256}
    .fil0 {fill:none}
   ]]>
  </style>
 </defs>
 <g id="Camada_x0020_1">
  <metadata id="CorelCorpID_0Corel-Layer"/>
  <path class="fil0 str0" d="M12915.84 6573.96c247.25,0 494.51,0 638.08,-7.01 143.58,-7.01 183.49,-21.03 224.47,-50.69 40.98,-29.65 83.04,-74.95 150.98,-148.29 67.95,-73.33 161.77,-174.7 225.4,-232.4 63.62,-57.7 97.06,-71.72 130.49,-80.89 33.43,-9.16 66.87,-13.47 193.04,-15.63 126.18,-2.16 1322.19,-2.16 1541.11,-2.16m-3103.57 831.75c247.25,0 494.51,0 638.08,7.01 143.58,7.01 183.49,21.02 224.47,50.68 40.98,29.66 83.04,74.96 150.98,148.29 67.95,73.34 161.77,174.71 225.4,232.4 63.62,57.7 97.06,71.72 130.49,80.89 33.43,9.17 66.87,13.48 193.04,15.64 126.18,2.15 1322.19,2.15 1541.11,2.15m-3278.29 -852.78c148.03,-308.97 296.07,-617.95 396.51,-790.76 100.44,-172.82 153.28,-209.5 208.82,-231.07 55.54,-21.56 113.79,-28.04 400.11,-31.27 286.33,-3.23 1777.83,-3.23 2292.25,-3.23m-3297.69 1393.08c148.03,308.98 296.07,617.95 396.51,790.77 100.44,172.82 153.28,209.49 208.82,231.06 55.54,21.56 113.79,28.04 400.11,31.27 286.33,3.24 1777.83,3.24 2292.25,3.24"/>
  <path class="fil0 str0" d="M8282.62 6573.96c-247.25,0 -494.51,0 -638.08,-7.01 -143.58,-7.01 -183.49,-21.03 -224.47,-50.69 -40.98,-29.65 -83.04,-74.95 -150.98,-148.29 -67.95,-73.33 -161.77,-174.7 -225.4,-232.4 -63.62,-57.7 -97.06,-71.72 -130.49,-80.89 -33.43,-9.16 -66.87,-13.47 -193.04,-15.63 -126.18,-2.16 -1322.19,-2.16 -1541.11,-2.16m3103.57 831.75c-247.25,0 -494.51,0 -638.08,7.01 -143.58,7.01 -183.49,21.02 -224.47,50.68 -40.98,29.66 -83.04,74.96 -150.98,148.29 -67.95,73.34 -161.77,174.71 -225.4,232.4 -63.62,57.7 -97.06,71.72 -130.49,80.89 -33.43,9.17 -66.87,13.48 -193.04,15.64 -126.18,2.15 -1322.19,2.15 -1541.11,2.15m3278.29 -852.78c-148.03,-308.97 -296.07,-617.95 -396.51,-790.76 -100.44,-172.82 -153.28,-209.5 -208.82,-231.07 -55.54,-21.56 -113.79,-28.04 -400.11,-31.27 -286.33,-3.23 -1777.83,-3.23 -2292.25,-3.23m3297.69 1393.08c-148.03,308.98 -296.07,617.95 -396.51,790.77 -100.44,172.82 -153.28,209.49 -208.82,231.06 -55.54,21.56 -113.79,28.04 -400.11,31.27 -286.33,3.24 -1777.83,3.24 -2292.25,3.24"/>
 </g>
</svg>