<svg xmlns="http://www.w3.org/2000/svg" xmlns:xlink="http://www.w3.org/1999/xlink" xmlns:xodm="http://www.corel.com/coreldraw/odm/2003" xml:space="preserve" version="1.1" style="shape-rendering:geometricPrecision; text-rendering:geometricPrecision; image-rendering:optimizeQuality; fill-rule:evenodd; clip-rule:evenodd" viewBox="2369.67 2120.88 11260.66 5981.65">
 <defs>
  <style type="text/css">
   <![CDATA[
    .fil0 {fill:black}
   ]]>
  </style>
 </defs>
 <g id="Camada_x0020_1">
  <metadata id="CorelCorpID_0Corel-Layer"/>
  <path class="fil0" d="M6196.6 2154.75c0,154.79 35.17,268.82 120.63,353.5 252.76,250.43 589.91,265.14 962.09,375.64 291.02,86.41 675.79,166.89 678.12,541.08 0.3,48.07 8.91,58.56 8.98,109.55 0.21,149.64 -0.29,299.36 -0.29,449.02 -16.01,-18.42 -21.39,-45.24 -34.02,-67.58 -101.23,-179 -283.7,-234.4 -487.35,-274.64 -245.53,-48.52 -505.49,-80.72 -759.55,-112.52 -781.91,-97.88 -1581.22,-163.21 -2369.64,-246.56 -134.67,-14.23 -259.26,-20.45 -392.93,-38.87 -135.34,-18.65 -261.68,-24.71 -396.75,-43.51 -239.9,-33.39 -524.97,-45.58 -750.93,-121.14 -115.7,-38.68 -178.4,-97.01 -241.15,-190.65 -153.5,-229.07 -73.51,-525 -96.41,-623.26 -66.55,-15.5 -58.28,6.93 -59.27,76.2 -0.67,46.9 -8.46,84.47 -8.46,143.94 0,268.69 82.99,499.59 297.93,616.47 68.28,37.12 156.34,58.39 237.49,75.77 255.3,54.7 976.76,132.28 1234.84,153.69 231.17,19.17 465.61,54.46 693.54,68.46 282.05,17.33 564.39,66.07 846.37,84.97 186.47,12.49 373.41,43.2 558.86,59.2l546.91 62.69c264.03,36.54 811.48,76.54 1004.07,232.06 226.13,182.6 176.45,768.99 176.45,1051.21l-0.04 1394.06c-0.01,394.23 -135.75,850.79 -599.01,919.41l-613.27 0c-87.31,0 -158.75,71.44 -158.75,158.75l0 582.09c0,87.31 71.43,158.75 158.75,158.75l2513.55 0c87.32,0 158.75,-71.43 158.75,-158.75l0 -582.09c0,-87.32 -71.44,-158.75 -158.75,-158.75l-622.99 0c-488.56,-65.36 -606.09,-516 -606.36,-922.06 -0.3,-435.79 -4.14,-1294.2 -4.14,-1416.81 0,-277.62 -49.15,-855.31 190.9,-1036.75 189.99,-143.61 746.63,-189.17 996.98,-222.23 185.15,-24.45 369.03,-44.76 555.47,-62.59l829.08 -85.32c186.86,-19.75 365.51,-44.97 552.06,-57.54 94.65,-6.38 182.2,-18.38 278.37,-26.43l415.31 -41.89c231.82,-15.54 465.82,-56.01 694.79,-75.67 176.51,-15.16 368.88,-41.4 541.09,-76.99 81.05,-16.75 164.05,-36.97 233.39,-71.4 217.77,-108.15 309.02,-348.35 309.02,-613.85l-12.71 -216.48c-14.96,-30.71 -33.11,-12.12 -55.02,-12.12 -26.64,114.32 104.34,656.01 -331.31,811.69 -231.32,82.66 -1238.35,179.88 -1539.09,205.04 -126.16,10.56 -262.89,32.71 -390.5,41.31 -128.85,8.68 -277.98,24.74 -400.05,40.21 -134.7,17.08 -259.16,23.45 -394.09,37.71 -127.76,13.51 -266.84,32.34 -399.07,41.2l-588.21 63.73c-308.27,42.9 -1057.1,95.7 -1284.99,239 -159.49,100.3 -141.55,152.68 -201.42,238.84 0,-146.82 0.4,-293.65 -0.2,-440.46 -1.21,-296.05 73.62,-430.96 338.96,-550.04 47.8,-21.45 111.42,-43.43 162.56,-57.57 266.44,-73.66 664.58,-162.73 871.6,-246 223.38,-89.83 396.61,-239.08 396.61,-500.86 0,-27.06 4.73,-67.73 -33.87,-67.73 -32.85,0 -24.64,25.96 -28.44,56.22 -2.66,21.22 -3.49,54.93 -6.57,86.57 -37.3,383.49 -722.93,475.09 -1058.93,566.66 -182.57,49.76 -370.94,96.68 -516.16,211.98 -52.95,42.04 -144.96,140.94 -150.96,213.1l-16.94 0c-8.74,-105.04 -166.89,-234.61 -253.87,-279.52 -436.17,-225.24 -1412.62,-243.19 -1471.27,-704.66 -4.4,-34.59 7.38,-150.35 -35.92,-150.35 -19.82,0 -33.87,14.05 -33.87,33.87z"/>
 </g>
</svg>