<svg xmlns="http://www.w3.org/2000/svg" xmlns:xlink="http://www.w3.org/1999/xlink" xmlns:xodm="http://www.corel.com/coreldraw/odm/2003" xml:space="preserve" style="shape-rendering:geometricPrecision; text-rendering:geometricPrecision; image-rendering:optimizeQuality; fill-rule:evenodd; clip-rule:evenodd" viewBox="0.01 0.03 17321.73 13897.6"> <defs>  <style type="text/css">   <![CDATA[    .fil0 {fill:white}   ]]>  </style> </defs> <g id="Camada_x0020_1">  <metadata id="CorelCorpID_0Corel-Layer"></metadata>  <path class="fil0" d="M7622.59 33.41c-277.08,85.72 -3063.57,2022.54 -3359.56,2226.84 -287.57,198.5 -543.45,383.41 -818.1,557.6 -193.92,122.98 -2336.92,45.8 -2748.41,67.89 -438.68,23.55 -671.56,299.95 -679.97,744.63 -9.66,509.99 -46.75,6665.2 36.9,6922.26 144.08,442.79 564.05,454.39 962.35,454.56l2116.83 2.43c316.38,-1.36 302.97,36.57 511.74,181.47 1093.29,758.79 2214.55,1515.34 3313.25,2258.64 285.15,192.92 921.43,783.31 1386.69,190.42 137.03,-174.63 150.55,-294.17 151.43,-559.54 4.05,-1220.2 35.86,-12299.56 -24.19,-12569.09 -79.82,-358.3 -441.79,-604.05 -848.95,-478.09zm5150.9 6912.13c-5.28,8.13 -14.15,10.15 -17.1,23.53l-2254.85 2270.13c-163.61,167.57 -265.89,228.33 -297.84,490.73 -69.36,569.58 604.34,1127.99 1236.23,482.75 258.15,-263.6 494.26,-499.11 757.66,-758.18 299.18,-294.27 1330.8,-1366.44 1545.53,-1532.74l198.69 165.59c66.2,72.65 119.89,126.75 190.74,196.12l1920.4 1922.73c154.99,149.34 246.09,263.58 480.02,297.26 254.87,36.7 439.35,-56 577.44,-190.73 622.16,-607.08 -270.64,-1222.5 -858.55,-1821.21 -258.45,-263.2 -499.14,-494.15 -759.07,-757.36l-767 -788.62c108.59,-163.61 1981.08,-2003.27 2283.91,-2303.63 679.07,-673.56 92.43,-1305.43 -443.2,-1254.23 -330.63,31.6 -621.67,411.84 -880.17,670.87 -131.96,132.23 -237.4,225.3 -390.31,385.53l-1342.6 1337.03c-78.72,84.15 -105.8,131.89 -210.29,187.9l-2301.53 -2291.79c-122.82,-122.01 -237.49,-261.45 -488.71,-288.77 -245.79,-26.73 -449.18,74.74 -569.73,197.29 -272.74,277.24 -280.85,702.55 83.7,1030.47l1144.76 1146.37c107.02,123.9 278.64,269.03 388.66,387.64l773.24 795.31z"></path> </g></svg>