<svg xmlns="http://www.w3.org/2000/svg" xmlns:xlink="http://www.w3.org/1999/xlink" xmlns:xodm="http://www.corel.com/coreldraw/odm/2003" xml:space="preserve" style="shape-rendering:geometricPrecision; text-rendering:geometricPrecision; image-rendering:optimizeQuality; fill-rule:evenodd; clip-rule:evenodd" viewBox="10142.81 14585.42 714.37 529.16"> <defs>  <style type="text/css">   <![CDATA[    .fil0 {fill:white;fill-rule:nonzero}   ]]>  </style> </defs> <g id="Camada_x0020_1">  <metadata id="CorelCorpID_0Corel-Layer"></metadata>  <g id="_2764417605008">   <path class="fil0" d="M10514.64 14948.74c-5.53,-11.88 6.13,-23.36 17.97,-18.02 2.57,1.19 4.55,3.17 5.73,5.75 5.33,11.88 -6.12,23.36 -17.97,18.01 -2.57,-1.18 -4.54,-3.16 -5.73,-5.74z"></path>   <path class="fil0" d="M10640.23 14889.93c5.33,-11.88 -6.12,-23.36 -17.97,-18.01 -2.56,1.18 -4.54,3.17 -5.72,5.74 -5.53,11.88 6.12,23.36 17.97,18.02 2.56,-1.19 4.54,-3.17 5.72,-5.75z"></path>   <path class="fil0" d="M10167.92 14604.78c5.34,-11.88 -6.12,-23.36 -17.97,-18.01 -2.56,1.18 -4.54,3.16 -5.72,5.74 -5.53,11.88 6.12,23.36 17.97,18.02 2.56,-1.19 4.54,-3.17 5.72,-5.75z"></path>   <path class="fil0" d="M10855.84 14737.08c5.34,-11.88 -6.14,-23.37 -18.02,-18.02 -2.58,1.18 -4.56,3.17 -5.75,5.74 -5.34,11.88 6.14,23.36 18.02,18.02 2.58,-1.19 4.56,-3.17 5.75,-5.74z"></path>   <path class="fil0" d="M10488.18 14684.16c-5.53,-11.88 6.13,-23.37 17.98,-18.02 2.56,1.19 4.54,3.17 5.72,5.74 5.33,11.88 -6.12,23.37 -17.97,18.02 -2.57,-1.19 -4.54,-3.17 -5.73,-5.74z"></path>   <path class="fil0" d="M10408.81 15001.66c-5.53,-11.88 6.12,-23.37 17.97,-18.02 2.57,1.19 4.54,3.17 5.73,5.74 5.33,11.88 -6.12,23.37 -17.97,18.02 -2.57,-1.19 -4.55,-3.17 -5.73,-5.74z"></path>   <path class="fil0" d="M10541.1 15107.49c-5.53,-11.88 6.12,-23.36 17.97,-18.02 2.57,1.19 4.54,3.17 5.73,5.75 5.33,11.88 -6.12,23.36 -17.97,18.01 -2.57,-1.18 -4.54,-3.16 -5.73,-5.74z"></path>  </g> </g></svg>