<svg xmlns="http://www.w3.org/2000/svg" xmlns:xlink="http://www.w3.org/1999/xlink" xmlns:xodm="http://www.corel.com/coreldraw/odm/2003" xml:space="preserve" version="1.1" style="shape-rendering:geometricPrecision; text-rendering:geometricPrecision; image-rendering:optimizeQuality; fill-rule:evenodd; clip-rule:evenodd" viewBox="5737.47 4397.98 9510.79 20905.1">
 <defs>
  <style type="text/css">
   <![CDATA[
    .str0 {stroke:#373435;stroke-width:70.56;stroke-miterlimit:22.9256}
    .fil0 {fill:none}
   ]]>
  </style>
 </defs>
 <g id="Camada_x0020_1">
  <metadata id="CorelCorpID_0Corel-Layer"/>
  <g id="_1451712486192">
   <path class="fil0 str0" d="M5772.75 4433.26c1491.15,73.94 2982.3,147.88 4310.16,329.65 1327.87,181.77 2492.44,471.38 3299.64,760.98 807.19,289.6 1257,579.21 1518.88,887.3 261.87,308.09 335.81,634.66 305,951.99 -30.81,317.34 -166.36,625.42 -702.44,1007.45 -536.07,382.03 -1472.66,838.01 -2485.81,1172.82 -1013.15,334.81 -2102.87,548.47 -3181.29,851.53 -1078.43,303.07 -2145.56,695.55 -2663.61,1318.89 -518.05,623.35 -487.02,1477.55 284.69,2132.4 771.7,654.86 2284.07,1110.34 3562.64,1504.7 1278.57,394.35 2323.33,727.56 3068.58,1011.98 745.24,284.42 1190.96,520.05 1506.42,928.91 315.47,408.85 500.67,990.94 368.38,1546.56 -132.29,555.63 -582.08,1084.79 -1381.24,1347.57 -799.17,262.78 -1947.7,259.17 -2826.98,445.3 -879.28,186.13 -1489.29,561.99 -1778.9,1366.37 -289.6,804.37 -258.79,2037.26 -227.98,3270.14"/>
  </g>
 </g>
</svg>