<svg xmlns="http://www.w3.org/2000/svg" xmlns:xlink="http://www.w3.org/1999/xlink" xmlns:xodm="http://www.corel.com/coreldraw/odm/2003" xml:space="preserve" style="shape-rendering:geometricPrecision; text-rendering:geometricPrecision; image-rendering:optimizeQuality; fill-rule:evenodd; clip-rule:evenodd" viewBox="0 0 5162.21 2239.55"> <defs> <style type="text/css"> .fil0 {fill:#666666} .fil2 {fill:white} .fil1 {fill:#202122;fill-opacity:0.941176} </style> </defs> <g id="Camada_x0020_1"> <metadata id="CorelCorpID_0Corel-Layer"></metadata> <g id="_2844653447424"> <path class="fil0" d="M1119.77 0l2922.67 0c615.87,0 1119.77,503.89 1119.77,1119.77l0 0.01c0,615.87 -503.89,1119.77 -1119.77,1119.77l-2922.67 0c-615.87,0 -1119.77,-503.89 -1119.77,-1119.77l0 -0.01c0,-615.87 503.89,-1119.77 1119.77,-1119.77zm0 79.78l2922.67 0c571.99,0 1039.99,467.99 1039.99,1039.99l0 0.02c0,571.99 -467.99,1039.99 -1039.99,1039.99l-2922.67 0c-571.99,0 -1039.99,-467.99 -1039.99,-1039.99l0 -0.02c0,-571.99 467.99,-1039.99 1039.99,-1039.99z"></path> <path class="fil1" d="M1119.77 79.78l2922.67 0c571.99,0 1039.99,467.99 1039.99,1039.99l0 0.02c0,571.99 -467.99,1039.99 -1039.99,1039.99l-2922.67 0c-571.99,0 -1039.99,-467.99 -1039.99,-1039.99l0 -0.02c0,-571.99 467.99,-1039.99 1039.99,-1039.99z"></path> <path class="fil2" d="M3575.4 1169.77c-5.16,11.78 -203.33,205.65 -229.43,231.63 -39.45,39.25 -76.85,76.49 -116.3,115.74 -17.11,17.03 -44.36,44.63 -18.36,79.23 20.4,27.17 53.74,25.44 78.16,2.71 65.36,-60.83 164.46,-164.35 232.12,-232.01l203.06 -203.03c14.09,-14.06 13.01,-15.03 24.43,-33.58l0 -22.11c-11.4,-18.52 -10.44,-19.54 -24.46,-33.54l-203.07 -203.03c-67.8,-67.8 -166.53,-171.04 -232.08,-232.05 -50.32,-46.84 -130.4,13.11 -60.48,82.62l346.32 346.61c-662.8,0 -1325.62,0 -1988.42,0l346.32 -346.61c69.92,-69.51 -10.16,-129.46 -60.48,-82.62 -65.55,61.01 -164.28,164.25 -232.08,232.05l-203.07 203.03c-14.02,14 -13.06,15.02 -24.46,33.54l0 22.11c11.42,18.55 10.34,19.52 24.43,33.58l203.06 203.03c67.66,67.66 166.76,171.18 232.12,232.01 24.42,22.73 57.76,24.45 78.16,-2.71 26,-34.6 -1.25,-62.2 -18.36,-79.23 -39.45,-39.25 -76.85,-76.49 -116.3,-115.74 -26.1,-25.98 -224.27,-219.85 -229.43,-231.63 662.87,0 1325.73,0 1988.6,0z"></path> </g> </g></svg>